<?xml version="1.0" encoding="utf-8"?>
<!-- Generator: Adobe Illustrator 21.0.2, SVG Export Plug-In . SVG Version: 6.00 Build 0)  -->
<svg version="1.1" id="Слой_1" xmlns="http://www.w3.org/2000/svg" xmlns:xlink="http://www.w3.org/1999/xlink" x="0px" y="0px"
	 viewBox="0 0 1280 911" style="enable-background:new 0 0 1280 911;" xml:space="preserve">
<style type="text/css">
	.st0
	{fill:#ffffff;}
</style>
<g transform="translate(0.000000,911.000000) scale(0.100000,-0.100000)">
	<path class="st0" d="M7479,8610c-137-72-355-486-416-790c-14-69-33-138-43-155c-11-18-26-87-39-175c-19-130-51-400-51-428
		c0-6-46-46-103-90c-268-207-436-461-527-797l-27-100l-271-5c-239-4-273-7-288-22c-17-16-17-18,1-38c16-18,30-20,144-20
		c267,0,346-54,373-254c12-92,6-144-21-178l-19-23l-372-5l-371-5l-40-42c-21-23-39-51-39-61c0-17,5-18,53-11c28,4,81,15,116,24
		c53,14,90,16,205,10c78-3,166-10,196-15s86-11,125-15c66-5,72-8,140-64c45-38,74-70,82-92c15-44,17-199,2-199c-6,0-36,7-67,16
		c-76,22-150,14-292-33l-115-38l250-5c163-3,257-9,270-17c34-19,72-65,99-120c24-49,25-53,8-61c-36-19-122-32-285-42
		c-500-31-952-172-1327-414c-180-116-391-298-515-445c-67-79-77-82-161-55c-41,14-70,38-179,149c-76,78-145,158-166,194
		c-78,132-130,348-173,711c-28,235-68,387-133,512c-63,121-420,451-656,609c-208,138-422,228-592,251c-96,13-144,6-268-38
		c-77-27-79-28-165-15c-48,8-109,17-137,21c-117,17-311-30-538-131c-257-115-453-237-565-352c-107-111-134-187-113-314
		c27-153,139-304,251-337c92-27,125-22,297,50c538,224,652,263,832,285c88,10,103,9,181-11c403-103,729-374,861-716
		c59-151,198-574,248-751c108-384,229-604,424-771c99-85,136-98,342-123c176-21,269-44,300-75c22-22,19-93-6-133
		c-29-48-22-77,56-233c36-73,69-152,72-174l5-42l-90-70c-50-38-142-106-204-150c-230-164-323-253-417-401l-53-83l4-222
		c5-204,7-228,32-311c75-248,240-377,486-377c154-1,292,59,427,185c121,113,371,473,419,603c15,41,34,78,43,83c9,4,35,4,59-1l43-9
		l-6-72c-4-40-18-151-32-247c-57-403-38-642,69-842c95-179,273-284,521-307c248-24,429,32,508,157c42,66,59,131,66,252
		c7,125,1,149-110,470c-63,182-71,214-72,280c0,84,21,135,66,157c13,6,85,16,159,22s236,27,360,46c358,56,485,73,647,86
		c172,13,193,9,242-47c70-79,116-175,286-586c73-177,81-192,157-283c150-179,356-343,467-371c149-37,455,33,649,148
		c79,47,167,132,193,185c47,97,20,237-73,380c-72,112-128,175-338,383c-178,175-264,277-324,381c-63,109-87,247-47,269
		c11,5,44,10,73,9l53-1l125-145c69-80,184-207,256-282c121-126,139-141,230-188c171-89,338-130,564-140c158-6,290,12,375,53
		c110,52,208,196,284,420c41,121,40,146-9,225c-22,35-55,90-72,121l-33,57l-130,46c-71,26-181,59-243,75c-121,31-219,77-332,158
		c-204,146-421,347-459,426l-23,46l107,222c58,123,138,283,178,357c71,133,72,134,117,147c25,7,79,24,120,38c41,13,149,48,240,76
		c411,129,793,307,1045,487c37,26,76,54,87,62c17,13,34,10,149-28c252-83,507-135,625-129l59,3l-131,43c-72,23-193,56-270,72
		c-229,49-344,91-391,142l-21,23l94,140c51,77,117,182,145,233l51,92h202c110,0,293-7,406-15s265-15,339-15h134l-24,26
		c-66,72-172,85-671,83c-202,0-372,2-377,6c-22,13-11,157,26,339c20,100,37,183,39,184c7,10,266,41,384,47c74,3,167,12,205,20
		c39,7,110,19,159,25s98,15,107,21c26,13,49,50,49,76c0,22-3,22-62,17c-77-7-197-26-383-59c-189-34-472-46-509-21
		c-53,34-72,88-100,295c-26,183-81,290-251,486c-105,120-193,245-226,319c-11,26-33,116-49,199c-110,594-210,884-413,1189
		c-77,116-234,291-300,333c-27,18-29,17-105-20c-148-74-272-225-419-516c-120-234-190-329-306-416c-34-24-87-51-124-63
		c-116-36-323-22-423,28c-49,24-58,34-94,102c-91,175-133,225-423,510c-153,150-303,290-333,311s-90,65-133,99
		C7570,8637,7542,8643,7479,8610z" />
</g>
</svg>
